<?xml version="1.0" standalone="no"?>
<!DOCTYPE svg PUBLIC "-//W3C//DTD SVG 20010904//EN"
 "http://www.w3.org/TR/2001/REC-SVG-20010904/DTD/svg10.dtd">
<svg version="1.0" xmlns="http://www.w3.org/2000/svg"
 width="300.000000pt" height="300.000000pt" viewBox="0 0 300.000000 300.000000"
 preserveAspectRatio="xMidYMid meet">
<metadata>
Created by potrace 1.10, written by Peter Selinger 2001-2011
</metadata>
<g transform="translate(0.000000,300.000000) scale(0.100000,-0.100000)"
fill="#000000" stroke="none">
<path d="M1260 2661 c-388 -83 -655 -295 -825 -654 -51 -107 -79 -203 -100
-342 -54 -362 61 -725 315 -998 127 -136 339 -260 530 -312 340 -91 690 -36
975 153 296 196 478 507 515 882 27 275 -47 551 -216 806 -163 246 -446 423
-757 474 -101 16 -340 11 -437 -9z m425 -26 c134 -18 296 -81 465 -180 63 -38
171 -141 236 -227 269 -357 325 -789 157 -1196 -103 -251 -294 -452 -538 -567
-89 -43 -163 -71 -207 -79 -13 -2 -43 -10 -68 -17 -61 -18 -384 -18 -465 -1
-243 53 -511 212 -635 378 -21 28 -45 58 -53 66 -30 30 -117 192 -146 274 -50
138 -72 268 -70 415 0 71 5 146 10 167 4 20 11 53 14 72 40 235 211 524 395
665 168 129 362 205 615 239 35 5 232 -1 290 -9z"/>
<path d="M1390 2609 c-382 -37 -680 -231 -859 -561 -45 -82 -96 -221 -112
-302 -49 -259 -8 -604 84 -703 l30 -32 151 -3 151 -3 3 -54 c2 -33 -1 -57 -8
-61 -7 -4 -48 -8 -93 -9 -94 -2 -125 -19 -113 -64 13 -53 132 -176 243 -251
33 -22 50 -27 76 -23 29 4 37 1 61 -29 30 -37 64 -44 90 -18 23 23 25 41 28
239 4 205 11 226 90 281 l41 29 211 3 c229 3 280 -3 334 -44 64 -49 72 -81 72
-284 0 -193 8 -232 50 -245 26 -8 79 24 86 52 7 24 20 28 43 14 42 -27 263
158 320 267 29 56 -15 84 -118 75 -84 -7 -96 0 -99 58 -4 66 2 69 160 69 166
0 186 7 216 77 53 124 76 279 69 460 -7 163 -32 284 -83 398 -10 22 -18 42
-19 45 0 3 -7 16 -15 30 -8 14 -24 42 -35 63 -41 74 -141 200 -208 262 -71 65
-207 149 -311 191 -139 57 -371 89 -536 73z m378 -65 c215 -52 417 -175 537
-326 176 -221 257 -449 257 -718 0 -137 -26 -291 -65 -390 l-22 -55 -181 -3
-182 -2 1 -100 1 -100 118 0 c70 0 118 -4 118 -10 0 -23 -126 -153 -207 -214
-48 -36 -90 -66 -93 -66 -3 0 -5 136 -5 303 l0 302 -28 57 c-34 69 -77 107
-193 173 -145 82 -191 99 -235 86 -48 -14 -135 -13 -179 3 -30 11 -42 10 -90
-7 -63 -23 -205 -105 -267 -154 -25 -20 -53 -57 -72 -95 l-31 -61 0 -305 0
-304 -32 21 c-110 69 -268 222 -268 259 0 5 47 10 113 10 61 0 113 3 115 6 1
3 2 49 2 101 l0 95 -179 0 -179 0 -26 73 c-35 99 -43 135 -57 256 -54 483 218
957 644 1121 216 84 458 100 685 44z m-328 -1106 c43 -8 74 -9 125 0 79 13 98
7 236 -72 168 -97 209 -159 210 -322 0 -47 -2 -88 -4 -91 -3 -2 -21 20 -40 49
-43 68 -106 123 -176 154 -53 24 -64 25 -285 25 -127 1 -244 -2 -261 -6 -81
-21 -189 -105 -227 -178 -11 -22 -21 -37 -23 -35 -3 2 -5 47 -6 99 -2 115 16
164 83 225 68 63 248 163 292 164 11 0 45 -5 76 -12z m353 -323 c73 -36 136
-105 161 -175 15 -43 19 -86 22 -235 l2 -183 -25 -11 c-13 -6 -29 -9 -34 -6
-5 4 -9 90 -9 194 0 250 -15 291 -130 359 -45 27 -47 27 -273 30 l-229 3 -54
-26 c-65 -32 -118 -92 -133 -150 -6 -24 -11 -126 -11 -225 0 -162 -2 -181 -16
-176 -9 3 -22 6 -30 6 -12 0 -14 32 -14 183 0 218 10 266 72 333 94 102 140
114 423 111 l220 -2 58 -30z"/>
<path d="M850 2299 c-35 -14 -59 -38 -83 -84 -20 -39 -20 -53 -18 -429 2 -437
3 -441 76 -486 41 -25 115 -39 115 -21 0 38 189 182 297 228 18 7 33 14 33 16
0 1 -99 1 -220 -1 l-220 -3 0 309 0 309 228 -2 c223 -2 227 -2 254 20 89 75
288 71 385 -7 6 -5 115 -10 242 -11 l231 -2 0 -307 0 -308 -222 0 -222 0 89
-51 c117 -67 190 -122 218 -164 17 -27 29 -35 53 -35 51 0 115 40 141 90 23
43 23 46 23 426 0 246 -4 393 -11 411 -13 34 -55 80 -91 99 -22 12 -132 14
-650 13 -386 0 -632 -4 -648 -10z m1039 -27 c2 -1 -2 -8 -8 -16 -7 -8 -11 -30
-9 -48 l3 -33 -69 -3 c-60 -3 -75 1 -127 28 -50 26 -103 41 -189 55 -29 4 -96
-16 -166 -50 l-70 -35 -208 1 c-175 0 -211 -2 -225 -15 -35 -32 -42 -7 -15 50
18 39 42 55 94 64 28 5 976 7 989 2z m76 -47 c0 -25 -4 -30 -24 -30 -32 0 -49
28 -31 50 7 9 23 15 34 13 16 -2 21 -10 21 -33z m126 19 c9 -11 10 -20 2 -32
-15 -24 -44 -27 -59 -7 -28 38 27 75 57 39z m67 0 c27 -18 52 -65 52 -95 l0
-22 -22 20 c-13 12 -32 23 -43 25 -16 2 -20 11 -20 46 0 47 2 48 33 26z
m-1340 -746 c9 -9 59 -15 145 -18 l132 -5 -65 -49 c-36 -27 -73 -60 -83 -73
-31 -39 -53 -46 -87 -28 -45 23 -70 70 -70 133 0 53 6 62 28 40z m1395 -1 c17
-44 -16 -135 -59 -164 -42 -27 -78 -21 -114 21 -18 20 -59 55 -91 78 -33 22
-58 43 -56 44 2 2 65 5 141 8 84 2 142 8 149 15 14 14 24 14 30 -2z"/>
<path d="M1414 2136 c-108 -35 -180 -120 -208 -246 -25 -108 12 -210 105 -294
150 -135 359 -83 452 112 28 60 29 69 24 145 -11 132 -62 214 -169 268 -52 27
-148 34 -204 15z m183 -46 c92 -41 144 -125 151 -242 4 -65 1 -83 -19 -124
-53 -111 -146 -171 -249 -161 -100 9 -178 67 -224 166 -41 91 -13 232 60 305
71 71 194 96 281 56z"/>
<path d="M937 2072 c-11 -12 -13 -22 -6 -35 9 -15 26 -17 134 -17 90 0 125 3
125 12 0 6 10 22 22 35 l21 23 -140 0 c-121 0 -142 -2 -156 -18z"/>
<path d="M934 1965 c-14 -37 2 -44 110 -47 94 -3 106 -1 106 14 0 9 3 23 6 32
5 14 -8 16 -105 16 -90 0 -113 -3 -117 -15z"/>
<path d="M939 1864 c-9 -11 -10 -20 -2 -32 13 -22 183 -31 183 -10 0 7 3 23 6
36 6 22 5 22 -84 22 -69 0 -92 -4 -103 -16z"/>
<path d="M934 1755 c-15 -38 1 -45 110 -45 l104 0 -11 30 -11 30 -94 0 c-73 0
-94 -3 -98 -15z"/>
<path d="M934 1655 c-15 -39 1 -45 114 -45 60 0 123 -3 140 -6 l31 -6 -17 36
-17 35 -123 1 c-100 0 -124 -3 -128 -15z"/>
<path d="M2153 1158 c-11 -13 -24 -33 -27 -45 -7 -21 -4 -22 94 -25 l100 -3 0
26 c0 42 -38 69 -96 69 -40 0 -55 -5 -71 -22z"/>
</g>
</svg>
